<mxfile host="app.diagrams.net" modified="2023-01-30T14:01:48.552Z" agent="5.0 (Macintosh; Intel Mac OS X 10_15_7) AppleWebKit/537.36 (KHTML, like Gecko) Chrome/109.0.0.0 Safari/537.36" etag="7B4gw6Ytz9V3aI9dMRU_" version="20.8.11" type="github">
  <diagram name="Page-1" id="DUf4Gku31Ncx4kjDFRz_">
    <mxGraphModel dx="1914" dy="1007" grid="1" gridSize="10" guides="1" tooltips="1" connect="1" arrows="1" fold="1" page="1" pageScale="1" pageWidth="850" pageHeight="1100" math="0" shadow="0">
      <root>
        <mxCell id="0" />
        <mxCell id="1" parent="0" />
        <mxCell id="ro5HPt0IZwYCv4RT2rbb-11" value="ent-dev" style="whiteSpace=wrap;html=1;aspect=fixed;fontStyle=1;fillColor=#dae8fc;strokeColor=#6c8ebf;" vertex="1" parent="1">
          <mxGeometry x="70" y="700" width="80" height="80" as="geometry" />
        </mxCell>
        <mxCell id="ro5HPt0IZwYCv4RT2rbb-12" value="ent-qa" style="whiteSpace=wrap;html=1;aspect=fixed;fontStyle=1;fillColor=#dae8fc;strokeColor=#6c8ebf;" vertex="1" parent="1">
          <mxGeometry x="190" y="700" width="80" height="80" as="geometry" />
        </mxCell>
        <mxCell id="ro5HPt0IZwYCv4RT2rbb-13" value="cre-dev" style="whiteSpace=wrap;html=1;aspect=fixed;fontStyle=1;fillColor=#cdeb8b;strokeColor=#36393d;" vertex="1" parent="1">
          <mxGeometry x="320" y="700" width="80" height="80" as="geometry" />
        </mxCell>
        <mxCell id="ro5HPt0IZwYCv4RT2rbb-14" value="cre-hot" style="whiteSpace=wrap;html=1;aspect=fixed;dashed=1;dashPattern=1 4;fillColor=#bac8d3;strokeColor=#23445d;fontStyle=1" vertex="1" parent="1">
          <mxGeometry x="320" y="820" width="80" height="80" as="geometry" />
        </mxCell>
        <mxCell id="ro5HPt0IZwYCv4RT2rbb-16" value="" style="sketch=0;points=[[0,0,0],[0.25,0,0],[0.5,0,0],[0.75,0,0],[1,0,0],[0,1,0],[0.25,1,0],[0.5,1,0],[0.75,1,0],[1,1,0],[0,0.25,0],[0,0.5,0],[0,0.75,0],[1,0.25,0],[1,0.5,0],[1,0.75,0]];outlineConnect=0;fontColor=#232F3E;gradientColor=#4D72F3;gradientDirection=north;fillColor=#3334B9;strokeColor=#ffffff;dashed=0;verticalLabelPosition=bottom;verticalAlign=top;align=center;html=1;fontSize=12;fontStyle=1;aspect=fixed;shape=mxgraph.aws4.resourceIcon;resIcon=mxgraph.aws4.rds;" vertex="1" parent="1">
          <mxGeometry x="80" y="710" width="20" height="20" as="geometry" />
        </mxCell>
        <mxCell id="ro5HPt0IZwYCv4RT2rbb-19" value="" style="sketch=0;points=[[0,0,0],[0.25,0,0],[0.5,0,0],[0.75,0,0],[1,0,0],[0,1,0],[0.25,1,0],[0.5,1,0],[0.75,1,0],[1,1,0],[0,0.25,0],[0,0.5,0],[0,0.75,0],[1,0.25,0],[1,0.5,0],[1,0.75,0]];outlineConnect=0;fontColor=#232F3E;gradientColor=#4D72F3;gradientDirection=north;fillColor=#3334B9;strokeColor=#ffffff;dashed=0;verticalLabelPosition=bottom;verticalAlign=top;align=center;html=1;fontSize=12;fontStyle=1;aspect=fixed;shape=mxgraph.aws4.resourceIcon;resIcon=mxgraph.aws4.rds;" vertex="1" parent="1">
          <mxGeometry x="200" y="710" width="20" height="20" as="geometry" />
        </mxCell>
        <mxCell id="ro5HPt0IZwYCv4RT2rbb-20" value="" style="sketch=0;points=[[0,0,0],[0.25,0,0],[0.5,0,0],[0.75,0,0],[1,0,0],[0,1,0],[0.25,1,0],[0.5,1,0],[0.75,1,0],[1,1,0],[0,0.25,0],[0,0.5,0],[0,0.75,0],[1,0.25,0],[1,0.5,0],[1,0.75,0]];outlineConnect=0;fontColor=#ffffff;gradientDirection=north;fillColor=#d80073;strokeColor=#FFFFFF;dashed=0;verticalLabelPosition=bottom;verticalAlign=top;align=center;html=1;fontSize=12;fontStyle=1;aspect=fixed;shape=mxgraph.aws4.resourceIcon;resIcon=mxgraph.aws4.rds;" vertex="1" parent="1">
          <mxGeometry x="330" y="750" width="20" height="20" as="geometry" />
        </mxCell>
        <mxCell id="ro5HPt0IZwYCv4RT2rbb-22" value="" style="sketch=0;points=[[0,0,0],[0.25,0,0],[0.5,0,0],[0.75,0,0],[1,0,0],[0,1,0],[0.25,1,0],[0.5,1,0],[0.75,1,0],[1,1,0],[0,0.25,0],[0,0.5,0],[0,0.75,0],[1,0.25,0],[1,0.5,0],[1,0.75,0]];outlineConnect=0;fontColor=#ffffff;gradientDirection=north;fillColor=#6a00ff;strokeColor=#FFFFFF;dashed=0;verticalLabelPosition=bottom;verticalAlign=top;align=center;html=1;fontSize=12;fontStyle=1;aspect=fixed;shape=mxgraph.aws4.resourceIcon;resIcon=mxgraph.aws4.rds;" vertex="1" parent="1">
          <mxGeometry x="330" y="710" width="20" height="20" as="geometry" />
        </mxCell>
        <mxCell id="ro5HPt0IZwYCv4RT2rbb-23" value="" style="sketch=0;points=[[0,0,0],[0.25,0,0],[0.5,0,0],[0.75,0,0],[1,0,0],[0,1,0],[0.25,1,0],[0.5,1,0],[0.75,1,0],[1,1,0],[0,0.25,0],[0,0.5,0],[0,0.75,0],[1,0.25,0],[1,0.5,0],[1,0.75,0]];outlineConnect=0;fontColor=#ffffff;gradientDirection=north;fillColor=#60a917;strokeColor=#FFFFFF;dashed=0;verticalLabelPosition=bottom;verticalAlign=top;align=center;html=1;fontSize=12;fontStyle=1;aspect=fixed;shape=mxgraph.aws4.resourceIcon;resIcon=mxgraph.aws4.rds;" vertex="1" parent="1">
          <mxGeometry x="200" y="750" width="20" height="20" as="geometry" />
        </mxCell>
        <mxCell id="ro5HPt0IZwYCv4RT2rbb-24" value="" style="sketch=0;points=[[0,0,0],[0.25,0,0],[0.5,0,0],[0.75,0,0],[1,0,0],[0,1,0],[0.25,1,0],[0.5,1,0],[0.75,1,0],[1,1,0],[0,0.25,0],[0,0.5,0],[0,0.75,0],[1,0.25,0],[1,0.5,0],[1,0.75,0]];outlineConnect=0;fontColor=#ffffff;gradientDirection=north;fillColor=#60a917;strokeColor=#FFFFFF;dashed=0;verticalLabelPosition=bottom;verticalAlign=top;align=center;html=1;fontSize=12;fontStyle=1;aspect=fixed;shape=mxgraph.aws4.resourceIcon;resIcon=mxgraph.aws4.rds;" vertex="1" parent="1">
          <mxGeometry x="80" y="750" width="20" height="20" as="geometry" />
        </mxCell>
        <mxCell id="ro5HPt0IZwYCv4RT2rbb-25" value="" style="sketch=0;points=[[0,0,0],[0.25,0,0],[0.5,0,0],[0.75,0,0],[1,0,0],[0,1,0],[0.25,1,0],[0.5,1,0],[0.75,1,0],[1,1,0],[0,0.25,0],[0,0.5,0],[0,0.75,0],[1,0.25,0],[1,0.5,0],[1,0.75,0]];outlineConnect=0;fontColor=#ffffff;gradientDirection=north;fillColor=#6a00ff;strokeColor=#FFFFFF;dashed=0;verticalLabelPosition=bottom;verticalAlign=top;align=center;html=1;fontSize=12;fontStyle=1;aspect=fixed;shape=mxgraph.aws4.resourceIcon;resIcon=mxgraph.aws4.rds;" vertex="1" parent="1">
          <mxGeometry x="580" y="710" width="20" height="20" as="geometry" />
        </mxCell>
        <mxCell id="ro5HPt0IZwYCv4RT2rbb-26" value="" style="sketch=0;points=[[0,0,0],[0.25,0,0],[0.5,0,0],[0.75,0,0],[1,0,0],[0,1,0],[0.25,1,0],[0.5,1,0],[0.75,1,0],[1,1,0],[0,0.25,0],[0,0.5,0],[0,0.75,0],[1,0.25,0],[1,0.5,0],[1,0.75,0]];outlineConnect=0;fontColor=#ffffff;gradientDirection=north;fillColor=#d80073;strokeColor=#FFFFFF;dashed=0;verticalLabelPosition=bottom;verticalAlign=top;align=center;html=1;fontSize=12;fontStyle=1;aspect=fixed;shape=mxgraph.aws4.resourceIcon;resIcon=mxgraph.aws4.rds;" vertex="1" parent="1">
          <mxGeometry x="580" y="750" width="20" height="20" as="geometry" />
        </mxCell>
        <mxCell id="ro5HPt0IZwYCv4RT2rbb-27" value="" style="sketch=0;points=[[0,0,0],[0.25,0,0],[0.5,0,0],[0.75,0,0],[1,0,0],[0,1,0],[0.25,1,0],[0.5,1,0],[0.75,1,0],[1,1,0],[0,0.25,0],[0,0.5,0],[0,0.75,0],[1,0.25,0],[1,0.5,0],[1,0.75,0]];outlineConnect=0;fontColor=#ffffff;gradientDirection=north;fillColor=#1ba1e2;strokeColor=#FFFFFF;dashed=0;verticalLabelPosition=bottom;verticalAlign=top;align=center;html=1;fontSize=12;fontStyle=1;aspect=fixed;shape=mxgraph.aws4.resourceIcon;resIcon=mxgraph.aws4.rds;" vertex="1" parent="1">
          <mxGeometry x="620" y="750" width="20" height="20" as="geometry" />
        </mxCell>
        <mxCell id="ro5HPt0IZwYCv4RT2rbb-29" value="" style="sketch=0;points=[[0,0,0],[0.25,0,0],[0.5,0,0],[0.75,0,0],[1,0,0],[0,1,0],[0.25,1,0],[0.5,1,0],[0.75,1,0],[1,1,0],[0,0.25,0],[0,0.5,0],[0,0.75,0],[1,0.25,0],[1,0.5,0],[1,0.75,0]];outlineConnect=0;fontColor=#ffffff;gradientDirection=north;fillColor=#6a00ff;strokeColor=#FFFFFF;dashed=0;verticalLabelPosition=bottom;verticalAlign=top;align=center;html=1;fontSize=12;fontStyle=1;aspect=fixed;shape=mxgraph.aws4.resourceIcon;resIcon=mxgraph.aws4.rds;" vertex="1" parent="1">
          <mxGeometry x="330" y="830" width="20" height="20" as="geometry" />
        </mxCell>
        <mxCell id="ro5HPt0IZwYCv4RT2rbb-30" value="" style="sketch=0;points=[[0,0,0],[0.25,0,0],[0.5,0,0],[0.75,0,0],[1,0,0],[0,1,0],[0.25,1,0],[0.5,1,0],[0.75,1,0],[1,1,0],[0,0.25,0],[0,0.5,0],[0,0.75,0],[1,0.25,0],[1,0.5,0],[1,0.75,0]];outlineConnect=0;fontColor=#ffffff;gradientDirection=north;fillColor=#d80073;strokeColor=#FFFFFF;dashed=0;verticalLabelPosition=bottom;verticalAlign=top;align=center;html=1;fontSize=12;fontStyle=1;aspect=fixed;shape=mxgraph.aws4.resourceIcon;resIcon=mxgraph.aws4.rds;" vertex="1" parent="1">
          <mxGeometry x="330" y="870" width="20" height="20" as="geometry" />
        </mxCell>
        <mxCell id="ro5HPt0IZwYCv4RT2rbb-32" value="ent-rca" style="whiteSpace=wrap;html=1;aspect=fixed;fontStyle=1;fillColor=#e1d5e7;strokeColor=#9673a6;" vertex="1" parent="1">
          <mxGeometry x="190" y="820" width="80" height="80" as="geometry" />
        </mxCell>
        <mxCell id="ro5HPt0IZwYCv4RT2rbb-35" value="" style="sketch=0;points=[[0,0,0],[0.25,0,0],[0.5,0,0],[0.75,0,0],[1,0,0],[0,1,0],[0.25,1,0],[0.5,1,0],[0.75,1,0],[1,1,0],[0,0.25,0],[0,0.5,0],[0,0.75,0],[1,0.25,0],[1,0.5,0],[1,0.75,0]];outlineConnect=0;fontColor=#232F3E;gradientColor=#4D72F3;gradientDirection=north;fillColor=#3334B9;strokeColor=#ffffff;dashed=0;verticalLabelPosition=bottom;verticalAlign=top;align=center;html=1;fontSize=12;fontStyle=1;aspect=fixed;shape=mxgraph.aws4.resourceIcon;resIcon=mxgraph.aws4.rds;" vertex="1" parent="1">
          <mxGeometry x="200" y="830" width="20" height="20" as="geometry" />
        </mxCell>
        <mxCell id="ro5HPt0IZwYCv4RT2rbb-42" style="edgeStyle=orthogonalEdgeStyle;rounded=0;orthogonalLoop=1;jettySize=auto;html=1;entryX=0.5;entryY=0;entryDx=0;entryDy=0;fontStyle=1" edge="1" parent="1" source="ro5HPt0IZwYCv4RT2rbb-38" target="ro5HPt0IZwYCv4RT2rbb-12">
          <mxGeometry relative="1" as="geometry">
            <Array as="points">
              <mxPoint x="230" y="680" />
              <mxPoint x="230" y="680" />
            </Array>
          </mxGeometry>
        </mxCell>
        <mxCell id="ro5HPt0IZwYCv4RT2rbb-43" style="edgeStyle=orthogonalEdgeStyle;rounded=0;orthogonalLoop=1;jettySize=auto;html=1;fontStyle=1" edge="1" parent="1" source="ro5HPt0IZwYCv4RT2rbb-38" target="ro5HPt0IZwYCv4RT2rbb-32">
          <mxGeometry relative="1" as="geometry">
            <Array as="points">
              <mxPoint x="290" y="640" />
              <mxPoint x="290" y="860" />
            </Array>
          </mxGeometry>
        </mxCell>
        <mxCell id="ro5HPt0IZwYCv4RT2rbb-38" value="idm-qa&lt;br&gt;" style="whiteSpace=wrap;html=1;aspect=fixed;fontStyle=1;fillColor=#b1ddf0;strokeColor=#10739e;" vertex="1" parent="1">
          <mxGeometry x="205" y="615" width="50" height="50" as="geometry" />
        </mxCell>
        <mxCell id="ro5HPt0IZwYCv4RT2rbb-44" style="edgeStyle=orthogonalEdgeStyle;rounded=0;orthogonalLoop=1;jettySize=auto;html=1;entryX=0.5;entryY=0;entryDx=0;entryDy=0;fontStyle=1" edge="1" parent="1" source="ro5HPt0IZwYCv4RT2rbb-39" target="ro5HPt0IZwYCv4RT2rbb-13">
          <mxGeometry relative="1" as="geometry" />
        </mxCell>
        <mxCell id="ro5HPt0IZwYCv4RT2rbb-39" value="cridm-dev" style="whiteSpace=wrap;html=1;aspect=fixed;fontStyle=1;fillColor=#b1ddf0;strokeColor=#10739e;" vertex="1" parent="1">
          <mxGeometry x="335" y="615" width="50" height="50" as="geometry" />
        </mxCell>
        <mxCell id="ro5HPt0IZwYCv4RT2rbb-46" style="edgeStyle=orthogonalEdgeStyle;rounded=0;orthogonalLoop=1;jettySize=auto;html=1;fontStyle=1" edge="1" parent="1" source="ro5HPt0IZwYCv4RT2rbb-45" target="ro5HPt0IZwYCv4RT2rbb-14">
          <mxGeometry relative="1" as="geometry" />
        </mxCell>
        <mxCell id="ro5HPt0IZwYCv4RT2rbb-48" value="" style="sketch=0;points=[[0,0,0],[0.25,0,0],[0.5,0,0],[0.75,0,0],[1,0,0],[0,1,0],[0.25,1,0],[0.5,1,0],[0.75,1,0],[1,1,0],[0,0.25,0],[0,0.5,0],[0,0.75,0],[1,0.25,0],[1,0.5,0],[1,0.75,0]];outlineConnect=0;fontColor=#ffffff;gradientDirection=north;fillColor=#60a917;strokeColor=#FFFFFF;dashed=0;verticalLabelPosition=bottom;verticalAlign=top;align=center;html=1;fontSize=12;fontStyle=1;aspect=fixed;shape=mxgraph.aws4.resourceIcon;resIcon=mxgraph.aws4.rds;" vertex="1" parent="1">
          <mxGeometry x="200" y="870" width="20" height="20" as="geometry" />
        </mxCell>
        <mxCell id="ro5HPt0IZwYCv4RT2rbb-49" value="AWS Enterprise Development" style="points=[[0,0],[0.25,0],[0.5,0],[0.75,0],[1,0],[1,0.25],[1,0.5],[1,0.75],[1,1],[0.75,1],[0.5,1],[0.25,1],[0,1],[0,0.75],[0,0.5],[0,0.25]];outlineConnect=0;gradientColor=none;html=1;whiteSpace=wrap;fontSize=12;fontStyle=0;container=1;pointerEvents=0;collapsible=0;recursiveResize=0;shape=mxgraph.aws4.group;grIcon=mxgraph.aws4.group_account;strokeColor=#CD2264;fillColor=none;verticalAlign=top;align=left;spacingLeft=30;fontColor=#CD2264;dashed=0;" vertex="1" parent="1">
          <mxGeometry x="40" y="580" width="470" height="360" as="geometry" />
        </mxCell>
        <mxCell id="ro5HPt0IZwYCv4RT2rbb-31" value="" style="sketch=0;points=[[0,0,0],[0.25,0,0],[0.5,0,0],[0.75,0,0],[1,0,0],[0,1,0],[0.25,1,0],[0.5,1,0],[0.75,1,0],[1,1,0],[0,0.25,0],[0,0.5,0],[0,0.75,0],[1,0.25,0],[1,0.5,0],[1,0.75,0]];outlineConnect=0;fontColor=#ffffff;gradientDirection=north;fillColor=#1ba1e2;strokeColor=#FFFFFF;dashed=0;verticalLabelPosition=bottom;verticalAlign=top;align=center;html=1;fontSize=12;fontStyle=1;aspect=fixed;shape=mxgraph.aws4.resourceIcon;resIcon=mxgraph.aws4.rds;" vertex="1" parent="ro5HPt0IZwYCv4RT2rbb-49">
          <mxGeometry x="330" y="290" width="20" height="20" as="geometry" />
        </mxCell>
        <mxCell id="ro5HPt0IZwYCv4RT2rbb-45" value="cridm-hot&lt;br&gt;" style="whiteSpace=wrap;html=1;aspect=fixed;dashed=1;dashPattern=1 4;fillColor=#bac8d3;strokeColor=#23445d;fontStyle=1" vertex="1" parent="ro5HPt0IZwYCv4RT2rbb-49">
          <mxGeometry x="400" y="255" width="50" height="50" as="geometry" />
        </mxCell>
        <mxCell id="ro5HPt0IZwYCv4RT2rbb-37" value="idm-dev" style="whiteSpace=wrap;html=1;aspect=fixed;fontStyle=1;fillColor=#b1ddf0;strokeColor=#10739e;" vertex="1" parent="ro5HPt0IZwYCv4RT2rbb-49">
          <mxGeometry x="45" y="40" width="50" height="50" as="geometry" />
        </mxCell>
        <mxCell id="ro5HPt0IZwYCv4RT2rbb-88" value="" style="sketch=0;points=[[0,0,0],[0.25,0,0],[0.5,0,0],[0.75,0,0],[1,0,0],[0,1,0],[0.25,1,0],[0.5,1,0],[0.75,1,0],[1,1,0],[0,0.25,0],[0,0.5,0],[0,0.75,0],[1,0.25,0],[1,0.5,0],[1,0.75,0]];outlineConnect=0;fontColor=#ffffff;gradientDirection=north;fillColor=#1ba1e2;strokeColor=#FFFFFF;dashed=0;verticalLabelPosition=bottom;verticalAlign=top;align=center;html=1;fontSize=12;fontStyle=1;aspect=fixed;shape=mxgraph.aws4.resourceIcon;resIcon=mxgraph.aws4.rds;" vertex="1" parent="ro5HPt0IZwYCv4RT2rbb-49">
          <mxGeometry x="330" y="170" width="20" height="20" as="geometry" />
        </mxCell>
        <mxCell id="ro5HPt0IZwYCv4RT2rbb-50" value="AWS Enterprise Production" style="points=[[0,0],[0.25,0],[0.5,0],[0.75,0],[1,0],[1,0.25],[1,0.5],[1,0.75],[1,1],[0.75,1],[0.5,1],[0.25,1],[0,1],[0,0.75],[0,0.5],[0,0.25]];outlineConnect=0;gradientColor=none;html=1;whiteSpace=wrap;fontSize=12;fontStyle=0;container=1;pointerEvents=0;collapsible=0;recursiveResize=0;shape=mxgraph.aws4.group;grIcon=mxgraph.aws4.group_account;strokeColor=#CD2264;fillColor=none;verticalAlign=top;align=left;spacingLeft=30;fontColor=#CD2264;dashed=0;" vertex="1" parent="1">
          <mxGeometry x="520" y="580" width="200" height="360" as="geometry" />
        </mxCell>
        <mxCell id="ro5HPt0IZwYCv4RT2rbb-40" value="idm" style="whiteSpace=wrap;html=1;aspect=fixed;fontStyle=1;fillColor=#b1ddf0;strokeColor=#10739e;" vertex="1" parent="ro5HPt0IZwYCv4RT2rbb-50">
          <mxGeometry x="75" y="36" width="50" height="50" as="geometry" />
        </mxCell>
        <mxCell id="ro5HPt0IZwYCv4RT2rbb-15" value="ent-prod" style="whiteSpace=wrap;html=1;aspect=fixed;fontStyle=1;fillColor=#cdeb8b;strokeColor=#36393d;" vertex="1" parent="ro5HPt0IZwYCv4RT2rbb-50">
          <mxGeometry x="60" y="120" width="80" height="80" as="geometry" />
        </mxCell>
        <mxCell id="ro5HPt0IZwYCv4RT2rbb-60" style="edgeStyle=orthogonalEdgeStyle;rounded=0;orthogonalLoop=1;jettySize=auto;html=1;entryX=0.5;entryY=0;entryDx=0;entryDy=0;fontStyle=1" edge="1" parent="ro5HPt0IZwYCv4RT2rbb-50" source="ro5HPt0IZwYCv4RT2rbb-40" target="ro5HPt0IZwYCv4RT2rbb-15">
          <mxGeometry relative="1" as="geometry" />
        </mxCell>
        <mxCell id="ro5HPt0IZwYCv4RT2rbb-86" value="" style="sketch=0;points=[[0,0,0],[0.25,0,0],[0.5,0,0],[0.75,0,0],[1,0,0],[0,1,0],[0.25,1,0],[0.5,1,0],[0.75,1,0],[1,1,0],[0,0.25,0],[0,0.5,0],[0,0.75,0],[1,0.25,0],[1,0.5,0],[1,0.75,0]];outlineConnect=0;fontColor=#ffffff;gradientDirection=north;fillColor=#6a00ff;strokeColor=#FFFFFF;dashed=0;verticalLabelPosition=bottom;verticalAlign=top;align=center;html=1;fontSize=12;fontStyle=1;aspect=fixed;shape=mxgraph.aws4.resourceIcon;resIcon=mxgraph.aws4.rds;" vertex="1" parent="ro5HPt0IZwYCv4RT2rbb-50">
          <mxGeometry x="70" y="130" width="20" height="20" as="geometry" />
        </mxCell>
        <mxCell id="ro5HPt0IZwYCv4RT2rbb-87" value="" style="sketch=0;points=[[0,0,0],[0.25,0,0],[0.5,0,0],[0.75,0,0],[1,0,0],[0,1,0],[0.25,1,0],[0.5,1,0],[0.75,1,0],[1,1,0],[0,0.25,0],[0,0.5,0],[0,0.75,0],[1,0.25,0],[1,0.5,0],[1,0.75,0]];outlineConnect=0;fontColor=#ffffff;gradientDirection=north;fillColor=#d80073;strokeColor=#FFFFFF;dashed=0;verticalLabelPosition=bottom;verticalAlign=top;align=center;html=1;fontSize=12;fontStyle=1;aspect=fixed;shape=mxgraph.aws4.resourceIcon;resIcon=mxgraph.aws4.rds;" vertex="1" parent="ro5HPt0IZwYCv4RT2rbb-50">
          <mxGeometry x="70" y="170" width="20" height="20" as="geometry" />
        </mxCell>
        <mxCell id="ro5HPt0IZwYCv4RT2rbb-21" value="" style="sketch=0;points=[[0,0,0],[0.25,0,0],[0.5,0,0],[0.75,0,0],[1,0,0],[0,1,0],[0.25,1,0],[0.5,1,0],[0.75,1,0],[1,1,0],[0,0.25,0],[0,0.5,0],[0,0.75,0],[1,0.25,0],[1,0.5,0],[1,0.75,0]];outlineConnect=0;fontColor=#ffffff;gradientDirection=north;fillColor=#1ba1e2;strokeColor=#FFFFFF;dashed=0;verticalLabelPosition=bottom;verticalAlign=top;align=center;html=1;fontSize=12;fontStyle=1;aspect=fixed;shape=mxgraph.aws4.resourceIcon;resIcon=mxgraph.aws4.rds;" vertex="1" parent="ro5HPt0IZwYCv4RT2rbb-50">
          <mxGeometry x="110" y="170" width="20" height="20" as="geometry" />
        </mxCell>
        <mxCell id="ro5HPt0IZwYCv4RT2rbb-71" value="" style="sketch=0;points=[[0,0,0],[0.25,0,0],[0.5,0,0],[0.75,0,0],[1,0,0],[0,1,0],[0.25,1,0],[0.5,1,0],[0.75,1,0],[1,1,0],[0,0.25,0],[0,0.5,0],[0,0.75,0],[1,0.25,0],[1,0.5,0],[1,0.75,0]];outlineConnect=0;fontColor=#ffffff;gradientDirection=north;fillColor=#60a917;strokeColor=#FFFFFF;dashed=0;verticalLabelPosition=bottom;verticalAlign=top;align=center;html=1;fontSize=12;fontStyle=0;aspect=fixed;shape=mxgraph.aws4.resourceIcon;resIcon=mxgraph.aws4.rds;" vertex="1" parent="1">
          <mxGeometry x="40" y="1010" width="20" height="20" as="geometry" />
        </mxCell>
        <mxCell id="ro5HPt0IZwYCv4RT2rbb-72" value="" style="sketch=0;points=[[0,0,0],[0.25,0,0],[0.5,0,0],[0.75,0,0],[1,0,0],[0,1,0],[0.25,1,0],[0.5,1,0],[0.75,1,0],[1,1,0],[0,0.25,0],[0,0.5,0],[0,0.75,0],[1,0.25,0],[1,0.5,0],[1,0.75,0]];outlineConnect=0;fontColor=#232F3E;gradientColor=#4D72F3;gradientDirection=north;fillColor=#3334B9;strokeColor=#ffffff;dashed=0;verticalLabelPosition=bottom;verticalAlign=top;align=center;html=1;fontSize=12;fontStyle=0;aspect=fixed;shape=mxgraph.aws4.resourceIcon;resIcon=mxgraph.aws4.rds;" vertex="1" parent="1">
          <mxGeometry x="40" y="970" width="20" height="20" as="geometry" />
        </mxCell>
        <mxCell id="ro5HPt0IZwYCv4RT2rbb-74" style="edgeStyle=orthogonalEdgeStyle;rounded=0;orthogonalLoop=1;jettySize=auto;html=1;entryX=0.5;entryY=0;entryDx=0;entryDy=0;fontStyle=1" edge="1" parent="1" source="ro5HPt0IZwYCv4RT2rbb-37" target="ro5HPt0IZwYCv4RT2rbb-11">
          <mxGeometry relative="1" as="geometry" />
        </mxCell>
        <mxCell id="ro5HPt0IZwYCv4RT2rbb-75" value="" style="sketch=0;points=[[0,0,0],[0.25,0,0],[0.5,0,0],[0.75,0,0],[1,0,0],[0,1,0],[0.25,1,0],[0.5,1,0],[0.75,1,0],[1,1,0],[0,0.25,0],[0,0.5,0],[0,0.75,0],[1,0.25,0],[1,0.5,0],[1,0.75,0]];outlineConnect=0;fontColor=#ffffff;gradientDirection=north;fillColor=#6a00ff;strokeColor=#FFFFFF;dashed=0;verticalLabelPosition=bottom;verticalAlign=top;align=center;html=1;fontSize=12;fontStyle=0;aspect=fixed;shape=mxgraph.aws4.resourceIcon;resIcon=mxgraph.aws4.rds;" vertex="1" parent="1">
          <mxGeometry x="280" y="970" width="20" height="20" as="geometry" />
        </mxCell>
        <mxCell id="ro5HPt0IZwYCv4RT2rbb-76" value="" style="sketch=0;points=[[0,0,0],[0.25,0,0],[0.5,0,0],[0.75,0,0],[1,0,0],[0,1,0],[0.25,1,0],[0.5,1,0],[0.75,1,0],[1,1,0],[0,0.25,0],[0,0.5,0],[0,0.75,0],[1,0.25,0],[1,0.5,0],[1,0.75,0]];outlineConnect=0;fontColor=#ffffff;gradientDirection=north;fillColor=#d80073;strokeColor=#FFFFFF;dashed=0;verticalLabelPosition=bottom;verticalAlign=top;align=center;html=1;fontSize=12;fontStyle=0;aspect=fixed;shape=mxgraph.aws4.resourceIcon;resIcon=mxgraph.aws4.rds;" vertex="1" parent="1">
          <mxGeometry x="280" y="1010" width="20" height="20" as="geometry" />
        </mxCell>
        <mxCell id="ro5HPt0IZwYCv4RT2rbb-78" value="" style="sketch=0;points=[[0,0,0],[0.25,0,0],[0.5,0,0],[0.75,0,0],[1,0,0],[0,1,0],[0.25,1,0],[0.5,1,0],[0.75,1,0],[1,1,0],[0,0.25,0],[0,0.5,0],[0,0.75,0],[1,0.25,0],[1,0.5,0],[1,0.75,0]];outlineConnect=0;fontColor=#ffffff;gradientDirection=north;fillColor=#1ba1e2;strokeColor=#FFFFFF;dashed=0;verticalLabelPosition=bottom;verticalAlign=top;align=center;html=1;fontSize=12;fontStyle=0;aspect=fixed;shape=mxgraph.aws4.resourceIcon;resIcon=mxgraph.aws4.rds;" vertex="1" parent="1">
          <mxGeometry x="280" y="1050" width="20" height="20" as="geometry" />
        </mxCell>
        <mxCell id="ro5HPt0IZwYCv4RT2rbb-81" value="CR MSSQL 2016" style="text;html=1;strokeColor=none;fillColor=none;align=left;verticalAlign=middle;whiteSpace=wrap;rounded=0;" vertex="1" parent="1">
          <mxGeometry x="67" y="965" width="140" height="30" as="geometry" />
        </mxCell>
        <mxCell id="ro5HPt0IZwYCv4RT2rbb-82" value="Indentity MSSQL 2019" style="text;html=1;strokeColor=none;fillColor=none;align=left;verticalAlign=middle;whiteSpace=wrap;rounded=0;" vertex="1" parent="1">
          <mxGeometry x="67" y="1005" width="140" height="30" as="geometry" />
        </mxCell>
        <mxCell id="ro5HPt0IZwYCv4RT2rbb-83" value="AG CR MSSQL 2016" style="text;html=1;strokeColor=none;fillColor=none;align=left;verticalAlign=middle;whiteSpace=wrap;rounded=0;" vertex="1" parent="1">
          <mxGeometry x="310" y="965" width="140" height="30" as="geometry" />
        </mxCell>
        <mxCell id="ro5HPt0IZwYCv4RT2rbb-84" value="AG Identity MSSQL 2019" style="text;html=1;strokeColor=none;fillColor=none;align=left;verticalAlign=middle;whiteSpace=wrap;rounded=0;" vertex="1" parent="1">
          <mxGeometry x="310" y="1005" width="140" height="30" as="geometry" />
        </mxCell>
        <mxCell id="ro5HPt0IZwYCv4RT2rbb-85" value="AG Distribution MSSQL 2019" style="text;html=1;strokeColor=none;fillColor=none;align=left;verticalAlign=middle;whiteSpace=wrap;rounded=0;" vertex="1" parent="1">
          <mxGeometry x="310" y="1040" width="140" height="35" as="geometry" />
        </mxCell>
      </root>
    </mxGraphModel>
  </diagram>
</mxfile>
